%
M48
M72
T01C0.0240
T02C0.0315
T03C0.0320
T04C0.0360
T05C0.0440
T06C0.0520
T07C0.1260
%
T01
X9933Y2680
X10933Y3680
X11933Y2680
X12933Y8680
X11433Y19680
X10433Y20680
X9433Y19680
T02
X17433Y12680
X22433Y12680
X25933Y12680
X30933Y12680
X30933Y9680
X25933Y9680
X22433Y9680
X17433Y9680
T03
X13433Y9180
X13433Y10180
X13433Y11180
X13433Y12180
X12433Y14180
X12433Y15180
X12433Y16180
X12433Y17180
X15433Y17180
X15433Y16180
X15433Y15180
X15433Y14180
X10433Y12180
X8933Y12680
X7933Y12680
X10433Y11180
X10433Y10180
X10433Y9180
X8933Y8680
X7933Y8680
X6433Y6680
X2433Y6680
X12433Y6180
X12433Y7180
X15433Y7180
X15433Y6180
X15433Y5180
X15433Y4180
X16933Y4680
X17933Y3680
X19933Y3680
X20933Y4680
X22933Y3680
X24433Y4680
X25933Y6180
X21933Y6180
X27233Y2680
X28633Y2680
X24433Y680
X22933Y1680
X19933Y2180
X17933Y2180
X12433Y4180
X12433Y5180
X2933Y13680
X2933Y17680
X16433Y20680
X17433Y19680
X19433Y19680
X20433Y20680
X21933Y21180
X21933Y19680
X23933Y19680
X25933Y21180
X26233Y17680
X27633Y17680
X23933Y15680
X21933Y17680
X19433Y18180
X17433Y18180
T04
X7933Y17680
X7933Y14680
X7933Y7180
X7933Y4180
T05
X6433Y5680
X2433Y5680
X4933Y13680
X4933Y17680
T06
X2433Y11170
X2433Y9190
X36933Y9170
X36933Y7190
X36933Y5170
X36933Y3190
X36933Y12690
X36933Y14670
X36933Y16690
X36933Y18670
T07
X4933Y3180
X32933Y2180
X32933Y19680
X4933Y19680
X4933Y19680
M30
