%
M48
M72
T01C0.0240
T02C0.0315
T03C0.0320
T04C0.0400
T05C0.0440
T06C0.0472
T07C0.0630
T08C0.0669
%
T01
X18369Y14033
X16400Y15293
X14826Y15844
X14353Y16317
X16400Y17655
X17109Y17419
X17582Y18994
X16794Y19387
X15377Y19151
X14117Y19939
X14826Y22065
X14038Y22852
X14432Y24348
X18999Y20883
X20337Y21828
X20101Y22537
X21204Y21435
X21519Y19860
X21519Y18994
X21046Y18836
X22306Y19072
X22778Y18443
X22306Y18285
X23330Y16553
X21519Y15923
X21519Y15135
X27503Y16002
X26794Y19860
X27424Y22380
X24983Y24899
X24983Y25687
T02
X32680Y18104
X35680Y18104
X35680Y13104
X32680Y13104
X6180Y16604
X3180Y16604
X3180Y21604
X6180Y21604
T03
X10980Y13604
X12380Y13604
X28180Y21104
X32180Y21104
X33680Y21104
X37680Y21104
X32680Y8604
X31680Y8604
T04
X13680Y19104
X13680Y21104
T05
X28180Y22604
X32180Y22604
X33680Y22604
X37680Y22604
T06
X20664Y10848
X18696Y10848
X18696Y8387
X19680Y8387
X20664Y8387
T07
X8680Y8029
X10649Y8029
X12617Y8029
X14586Y8029
X24696Y8106
X26664Y8106
T08
X8680Y24824
X8680Y26383
X28900Y25604
X30460Y25604
X32400Y25604
X33960Y25604
M30
