G75*
G70*
%OFA0B0*%
%FSLAX24Y24*%
%IPPOS*%
%LPD*%
%AMOC8*
5,1,8,0,0,1.08239X$1,22.5*
%
%ADD10R,0.0946X0.0316*%
%ADD11R,0.0789X0.0710*%
%ADD12R,0.0790X0.0710*%
%ADD13R,0.0710X0.0790*%
%ADD14C,0.0740*%
%ADD15OC8,0.0600*%
%ADD16R,0.0710X0.0789*%
%ADD17OC8,0.0710*%
%ADD18C,0.0710*%
%ADD19C,0.0595*%
%ADD20R,0.0316X0.0946*%
%ADD21R,0.0710X0.1143*%
%ADD22C,0.0789*%
%ADD23R,0.1025X0.1025*%
%ADD24C,0.1025*%
%ADD25C,0.1084*%
%ADD26C,0.1080*%
%ADD27OC8,0.1080*%
%ADD28C,0.0480*%
D10*
X011156Y015854D03*
X011156Y016354D03*
X011156Y016854D03*
X011156Y017354D03*
X013204Y017354D03*
X013204Y016854D03*
X013204Y016354D03*
X013204Y015854D03*
X018156Y019854D03*
X018156Y020354D03*
X018156Y020854D03*
X018156Y021354D03*
X020204Y021354D03*
X020204Y020854D03*
X020204Y020354D03*
X020204Y019854D03*
X024656Y021354D03*
X024656Y021854D03*
X024656Y022354D03*
X024656Y022854D03*
X026704Y022854D03*
X026704Y022354D03*
X026704Y021854D03*
X026704Y021354D03*
D11*
X024680Y020155D03*
X024680Y019053D03*
X023180Y019053D03*
X023180Y020155D03*
X024180Y017655D03*
X025180Y017655D03*
X025180Y016553D03*
X024180Y016553D03*
X023180Y015155D03*
X023180Y014053D03*
D12*
X022680Y016544D03*
X022680Y017664D03*
X016680Y020044D03*
X016680Y021164D03*
D13*
X017120Y018104D03*
X018240Y018104D03*
X018240Y016604D03*
X017120Y016604D03*
X019120Y014604D03*
X019120Y013604D03*
X020240Y013604D03*
X020240Y014604D03*
X017740Y013604D03*
X016620Y013604D03*
X020120Y016604D03*
X021240Y016604D03*
X021240Y018104D03*
X020120Y018104D03*
X031120Y011104D03*
X032240Y011104D03*
D14*
X032180Y022604D03*
X033680Y022604D03*
X037680Y022604D03*
X028180Y022604D03*
D15*
X028180Y021104D03*
X032180Y021104D03*
X033680Y021104D03*
X037680Y021104D03*
X032680Y008604D03*
X031680Y008604D03*
D16*
X017731Y014604D03*
X016629Y014604D03*
D17*
X010980Y013604D03*
D18*
X012380Y013604D03*
D19*
X006180Y016604D03*
X003180Y016604D03*
X003180Y021604D03*
X006180Y021604D03*
X032680Y018104D03*
X035680Y018104D03*
X035680Y013104D03*
X032680Y013104D03*
D20*
X027930Y017080D03*
X027430Y017080D03*
X026930Y017080D03*
X026430Y017080D03*
X026430Y019128D03*
X026930Y019128D03*
X027430Y019128D03*
X027930Y019128D03*
X014430Y023580D03*
X013930Y023580D03*
X013430Y023580D03*
X012930Y023580D03*
X012930Y025628D03*
X013430Y025628D03*
X013930Y025628D03*
X014430Y025628D03*
D21*
X025629Y026604D03*
X026731Y026604D03*
X026731Y024604D03*
X025629Y024604D03*
D22*
X020664Y010848D03*
X018696Y010848D03*
X018696Y008387D03*
X019680Y008387D03*
X020664Y008387D03*
D23*
X008680Y008029D03*
D24*
X010649Y008029D03*
X012617Y008029D03*
X014586Y008029D03*
X024696Y008106D03*
X026664Y008106D03*
D25*
X009182Y024824D02*
X008178Y024824D01*
X008178Y026383D02*
X009182Y026383D01*
X028900Y026106D02*
X028900Y025102D01*
X030460Y025102D02*
X030460Y026106D01*
X032400Y026106D02*
X032400Y025102D01*
X033960Y025102D02*
X033960Y026106D01*
D26*
X013680Y019104D03*
D27*
X013680Y021104D03*
D28*
X014826Y022065D03*
X014038Y022852D03*
X014432Y024348D03*
X018999Y020883D03*
X020337Y021828D03*
X020101Y022537D03*
X021204Y021435D03*
X021519Y019860D03*
X021519Y018994D03*
X021046Y018836D03*
X022306Y019072D03*
X022778Y018443D03*
X022306Y018285D03*
X023330Y016553D03*
X021519Y015923D03*
X021519Y015135D03*
X018369Y014033D03*
X016400Y015293D03*
X014826Y015844D03*
X014353Y016317D03*
X016400Y017655D03*
X017109Y017419D03*
X017582Y018994D03*
X016794Y019387D03*
X015377Y019151D03*
X014117Y019939D03*
X024983Y024899D03*
X024983Y025687D03*
X027424Y022380D03*
X026794Y019860D03*
X027503Y016002D03*
M02*
