G75*
G70*
%OFA0B0*%
%FSLAX24Y24*%
%IPPOS*%
%LPD*%
%AMOC8*
5,1,8,0,0,1.08239X$1,22.5*
%
%ADD10C,0.1340*%
%ADD11C,0.0600*%
%ADD12OC8,0.0600*%
%ADD13C,0.0740*%
%ADD14OC8,0.0640*%
%ADD15C,0.0860*%
%ADD16C,0.0520*%
%ADD17OC8,0.0710*%
%ADD18C,0.0710*%
%ADD19C,0.0595*%
%ADD20R,0.1740X0.1740*%
%ADD21C,0.0480*%
D10*
X004933Y003180D03*
X032933Y002180D03*
X032933Y019680D03*
X004933Y019680D03*
D11*
X012433Y017180D03*
X012433Y016180D03*
X012433Y015180D03*
X012433Y014180D03*
X013433Y012180D03*
X013433Y011180D03*
X013433Y010180D03*
X013433Y009180D03*
X010433Y009180D03*
X010433Y010180D03*
X010433Y011180D03*
X010433Y012180D03*
X015433Y014180D03*
X015433Y015180D03*
X015433Y016180D03*
X015433Y017180D03*
X015433Y007180D03*
X015433Y006180D03*
X015433Y005180D03*
X015433Y004180D03*
X012433Y004180D03*
X012433Y005180D03*
X012433Y006180D03*
X012433Y007180D03*
D12*
X008933Y008680D03*
X007933Y008680D03*
X006433Y006680D03*
X002433Y006680D03*
X007933Y012680D03*
X008933Y012680D03*
X002933Y013680D03*
X002933Y017680D03*
X016433Y020680D03*
X017433Y019680D03*
X019433Y019680D03*
X020433Y020680D03*
X021933Y021180D03*
X021933Y019680D03*
X023933Y019680D03*
X025933Y021180D03*
X021933Y017680D03*
X019433Y018180D03*
X017433Y018180D03*
X023933Y015680D03*
X021933Y006180D03*
X020933Y004680D03*
X019933Y003680D03*
X017933Y003680D03*
X016933Y004680D03*
X017933Y002180D03*
X019933Y002180D03*
X022933Y001680D03*
X024433Y000680D03*
X022933Y003680D03*
X024433Y004680D03*
X025933Y006180D03*
D13*
X006433Y005680D03*
X002433Y005680D03*
X004933Y013680D03*
X004933Y017680D03*
D14*
X007933Y017680D03*
X007933Y014680D03*
X007933Y007180D03*
X007933Y004180D03*
D15*
X002823Y009190D02*
X002043Y009190D01*
X002043Y011170D02*
X002823Y011170D01*
X036543Y012690D02*
X037323Y012690D01*
X037323Y014670D02*
X036543Y014670D01*
X036543Y016690D02*
X037323Y016690D01*
X037323Y018670D02*
X036543Y018670D01*
X036543Y009170D02*
X037323Y009170D01*
X037323Y007190D02*
X036543Y007190D01*
X036543Y005170D02*
X037323Y005170D01*
X037323Y003190D02*
X036543Y003190D01*
D16*
X011933Y002680D03*
X010933Y003680D03*
X009933Y002680D03*
X009433Y019680D03*
X010433Y020680D03*
X011433Y019680D03*
D17*
X027633Y017680D03*
X028633Y002680D03*
D18*
X027233Y002680D03*
X026233Y017680D03*
D19*
X025933Y012680D03*
X022433Y012680D03*
X017433Y012680D03*
X017433Y009680D03*
X022433Y009680D03*
X025933Y009680D03*
X030933Y009680D03*
X030933Y012680D03*
D20*
X004933Y019680D03*
D21*
X012933Y008680D03*
M02*
